<svg xmlns="http://www.w3.org/2000/svg" xmlns:xlink="http://www.w3.org/1999/xlink" width="18" height="17" viewBox="0 0 18 17">
    <defs>
        <path id="a" d="M18 8.5V0H0v17h18z"/>
    </defs>
    <g fill="none" fill-rule="evenodd">
        <g>
            <mask id="b" fill="#fff">
                <use xlink:href="#a"/>
            </mask>
            <path fill="#646464" d="M16.875 15.583a.365.365 0 0 1-.375.354h-15c-.207 0-.375-.159-.375-.354V3.01c0-.195.168-.354.375-.354h2.438V3.72c0 .293.251.53.562.53.31 0 .563-.237.563-.53V2.656h3.375V3.72c0 .293.252.53.562.53.31 0 .563-.237.563-.53V2.656h3.374V3.72c0 .293.252.53.563.53.311 0 .563-.237.563-.53V2.656H16.5c.207 0 .375.159.375.354v12.573zM16.5 1.593h-2.438V.532c0-.294-.25-.531-.562-.531-.311 0-.563.237-.563.531v1.063H9.563V.53C9.563.237 9.31 0 9 0c-.31 0-.563.237-.563.531v1.063H5.063V.53C5.063.237 4.81 0 4.5 0c-.31 0-.563.237-.563.531v1.063H1.5c-.828 0-1.5.633-1.5 1.416v12.573C0 16.366.672 17 1.5 17h15c.829 0 1.5-.634 1.5-1.417V3.01c0-.783-.671-1.416-1.5-1.416z" mask="url(#b)"/>
        </g>
        <path fill="#646464" d="M4 8h2V6H4zM4 11h2V9H4zM4 14h2v-2H4zM8 14h2v-2H8zM8 11h2V9H8zM8 8h2V6H8zM12 14h2v-2h-2zM12 11h2V9h-2zM12 8h2V6h-2z"/>
    </g>
</svg>
