<svg xmlns="http://www.w3.org/2000/svg" width="48" height="48" viewBox="0 0 48 48">
    <path fill="#FFF" fill-rule="nonzero" d="M37.149 8.851c-7.801-7.801-20.496-7.802-28.298 0s-7.801 20.496 0 28.298c7.802 7.801 20.496 7.801 28.298 0 7.801-7.802 7.801-20.497 0-28.298zm-6.258 22.04a1.539 1.539 0 0 1-2.177 0L23 25.175l-5.986 5.986a1.539 1.539 0 1 1-2.176-2.176L20.824 23l-5.714-5.714a1.539 1.539 0 1 1 2.176-2.177L23 20.823l5.442-5.441a1.539 1.539 0 1 1 2.176 2.176L25.177 23l5.714 5.714a1.539 1.539 0 0 1 0 2.176z"/>
</svg>
